<?xml version="1.0" encoding="UTF-8" standalone="no"?>
<!DOCTYPE svg PUBLIC "-//W3C//DTD SVG 1.1//EN" "http://www.w3.org/Graphics/SVG/1.1/DTD/svg11.dtd">
<svg xmlns="http://www.w3.org/2000/svg" version="1.1" viewBox="0.00 0.00 1024.00 1024.00">
<g stroke-width="2.00" fill="none" stroke-linecap="butt">
<path stroke="#888e95" vector-effect="non-scaling-stroke" d="
  M 587.64 440.29
  C 601.09 451.81 612.55 463.55 622.72 476.98
  Q 623.89 478.52 623.54 476.62
  Q 620.91 462.11 614.84 448.42
  C 597.75 409.91 568.94 378.59 530.75 360.34
  C 486.00 338.95 434.54 340.28 389.63 360.67
  C 330.02 387.73 290.43 444.22 278.51 507.76
  Q 270.82 548.77 280.80 591.15
  Q 287.93 621.43 305.30 647.61
  Q 307.52 650.96 310.74 654.13
  Q 311.06 654.44 310.97 654.00
  Q 306.70 633.47 305.01 624.75
  Q 299.15 594.41 297.99 565.25
  C 295.59 505.29 319.12 446.39 369.96 412.20
  C 402.24 390.49 442.75 382.26 481.02 388.48
  Q 504.65 392.32 524.94 400.96
  Q 558.34 415.18 587.64 440.29"
/>
<path stroke="#888e95" vector-effect="non-scaling-stroke" d="
  M 379.33 667.83
  Q 382.03 669.70 380.18 666.98
  Q 362.42 640.91 352.86 612.67
  C 335.39 561.09 338.06 499.20 371.87 454.89
  Q 383.16 440.09 395.23 431.46
  Q 407.77 422.50 415.33 419.08
  C 451.13 402.94 495.00 403.21 531.95 415.04
  Q 534.30 415.80 532.02 414.85
  Q 490.68 397.64 446.08 403.49
  C 402.80 409.16 364.86 433.86 342.40 471.39
  C 317.44 513.07 312.79 562.60 330.61 607.91
  Q 343.45 640.55 370.64 661.93
  C 373.58 664.24 376.32 665.75 379.33 667.83"
/>
<path stroke="#888e95" vector-effect="non-scaling-stroke" d="
  M 507.06 419.74
  Q 487.82 428.84 474.80 444.82
  Q 468.45 452.62 464.09 461.64
  C 453.18 484.21 451.51 510.57 459.59 534.24
  Q 465.46 551.45 475.33 564.56
  Q 497.78 594.41 532.64 609.39
  Q 578.55 629.11 627.31 617.72
  Q 627.49 617.67 627.46 617.49
  L 627.41 617.23
  Q 627.40 617.21 627.39 617.21
  Q 574.15 625.42 526.45 600.84
  C 495.75 585.02 469.75 556.86 461.42 523.13
  C 451.15 481.57 469.89 440.49 507.10 419.82
  A 0.04 0.04 0.0 0 0 507.06 419.74"
/>
<path stroke="#888e95" vector-effect="non-scaling-stroke" d="
  M 327.51 700.22
  Q 331.58 701.86 337.58 703.31
  Q 353.16 707.06 368.55 705.07
  Q 385.23 702.91 394.63 699.89
  Q 402.35 697.41 421.48 691.28
  C 436.56 686.45 452.50 682.35 465.71 679.91
  Q 515.72 670.71 566.24 681.13
  Q 588.10 685.64 609.58 692.26
  C 621.79 696.02 630.33 698.50 640.99 700.77
  C 658.97 704.60 679.98 704.50 697.18 698.36
  Q 718.84 690.64 735.60 674.52
  A 0.02 0.02 0.0 0 0 735.58 674.49
  C 719.55 684.85 699.68 688.98 680.76 687.17
  Q 658.42 685.03 639.53 677.35
  Q 637.86 676.67 628.69 673.24
  Q 623.17 671.17 617.87 668.88
  Q 598.54 660.52 587.28 656.64
  Q 568.78 650.27 559.35 647.98
  Q 511.13 636.25 462.86 648.12
  C 446.02 652.26 429.91 658.73 414.08 666.59
  Q 397.15 675.00 382.16 682.98
  C 375.49 686.53 369.69 689.01 361.61 692.62
  Q 352.40 696.73 337.17 699.57
  Q 333.03 700.35 327.58 699.93
  Q 326.60 699.85 327.51 700.22"
/>
<path stroke="#888e95" vector-effect="non-scaling-stroke" d="
  M 668.40 728.05
  C 649.44 734.36 627.65 730.52 608.71 724.42
  Q 589.51 718.23 578.40 715.19
  Q 560.56 710.30 551.66 708.85
  C 518.34 703.43 485.26 705.82 453.34 716.00
  Q 439.80 720.32 430.75 724.02
  Q 414.24 730.77 402.80 734.50
  Q 395.88 736.75 389.17 737.27
  Q 387.05 737.44 389.08 738.06
  C 407.91 743.87 426.46 743.12 445.69 739.41
  Q 462.70 736.12 480.34 733.87
  Q 523.45 728.35 568.17 734.53
  Q 585.76 736.96 594.06 738.31
  C 606.01 740.24 616.80 741.11 628.50 740.52
  Q 652.42 739.32 672.34 727.07
  Q 673.08 726.61 672.24 726.85
  Q 670.54 727.34 668.40 728.05"
/>
</g>
<path fill="#141f2e" d="
  M 1024.00 0.00
  L 1024.00 1024.00
  L 0.00 1024.00
  L 0.00 0.00
  L 1024.00 0.00
  Z
  M 587.64 440.29
  C 601.09 451.81 612.55 463.55 622.72 476.98
  Q 623.89 478.52 623.54 476.62
  Q 620.91 462.11 614.84 448.42
  C 597.75 409.91 568.94 378.59 530.75 360.34
  C 486.00 338.95 434.54 340.28 389.63 360.67
  C 330.02 387.73 290.43 444.22 278.51 507.76
  Q 270.82 548.77 280.80 591.15
  Q 287.93 621.43 305.30 647.61
  Q 307.52 650.96 310.74 654.13
  Q 311.06 654.44 310.97 654.00
  Q 306.70 633.47 305.01 624.75
  Q 299.15 594.41 297.99 565.25
  C 295.59 505.29 319.12 446.39 369.96 412.20
  C 402.24 390.49 442.75 382.26 481.02 388.48
  Q 504.65 392.32 524.94 400.96
  Q 558.34 415.18 587.64 440.29
  Z
  M 379.33 667.83
  Q 382.03 669.70 380.18 666.98
  Q 362.42 640.91 352.86 612.67
  C 335.39 561.09 338.06 499.20 371.87 454.89
  Q 383.16 440.09 395.23 431.46
  Q 407.77 422.50 415.33 419.08
  C 451.13 402.94 495.00 403.21 531.95 415.04
  Q 534.30 415.80 532.02 414.85
  Q 490.68 397.64 446.08 403.49
  C 402.80 409.16 364.86 433.86 342.40 471.39
  C 317.44 513.07 312.79 562.60 330.61 607.91
  Q 343.45 640.55 370.64 661.93
  C 373.58 664.24 376.32 665.75 379.33 667.83
  Z
  M 507.06 419.74
  Q 487.82 428.84 474.80 444.82
  Q 468.45 452.62 464.09 461.64
  C 453.18 484.21 451.51 510.57 459.59 534.24
  Q 465.46 551.45 475.33 564.56
  Q 497.78 594.41 532.64 609.39
  Q 578.55 629.11 627.31 617.72
  Q 627.49 617.67 627.46 617.49
  L 627.41 617.23
  Q 627.40 617.21 627.39 617.21
  Q 574.15 625.42 526.45 600.84
  C 495.75 585.02 469.75 556.86 461.42 523.13
  C 451.15 481.57 469.89 440.49 507.10 419.82
  A 0.04 0.04 0.0 0 0 507.06 419.74
  Z
  M 327.51 700.22
  Q 331.58 701.86 337.58 703.31
  Q 353.16 707.06 368.55 705.07
  Q 385.23 702.91 394.63 699.89
  Q 402.35 697.41 421.48 691.28
  C 436.56 686.45 452.50 682.35 465.71 679.91
  Q 515.72 670.71 566.24 681.13
  Q 588.10 685.64 609.58 692.26
  C 621.79 696.02 630.33 698.50 640.99 700.77
  C 658.97 704.60 679.98 704.50 697.18 698.36
  Q 718.84 690.64 735.60 674.52
  A 0.02 0.02 0.0 0 0 735.58 674.49
  C 719.55 684.85 699.68 688.98 680.76 687.17
  Q 658.42 685.03 639.53 677.35
  Q 637.86 676.67 628.69 673.24
  Q 623.17 671.17 617.87 668.88
  Q 598.54 660.52 587.28 656.64
  Q 568.78 650.27 559.35 647.98
  Q 511.13 636.25 462.86 648.12
  C 446.02 652.26 429.91 658.73 414.08 666.59
  Q 397.15 675.00 382.16 682.98
  C 375.49 686.53 369.69 689.01 361.61 692.62
  Q 352.40 696.73 337.17 699.57
  Q 333.03 700.35 327.58 699.93
  Q 326.60 699.85 327.51 700.22
  Z
  M 668.40 728.05
  C 649.44 734.36 627.65 730.52 608.71 724.42
  Q 589.51 718.23 578.40 715.19
  Q 560.56 710.30 551.66 708.85
  C 518.34 703.43 485.26 705.82 453.34 716.00
  Q 439.80 720.32 430.75 724.02
  Q 414.24 730.77 402.80 734.50
  Q 395.88 736.75 389.17 737.27
  Q 387.05 737.44 389.08 738.06
  C 407.91 743.87 426.46 743.12 445.69 739.41
  Q 462.70 736.12 480.34 733.87
  Q 523.45 728.35 568.17 734.53
  Q 585.76 736.96 594.06 738.31
  C 606.01 740.24 616.80 741.11 628.50 740.52
  Q 652.42 739.32 672.34 727.07
  Q 673.08 726.61 672.24 726.85
  Q 670.54 727.34 668.40 728.05
  Z"
/>
<path fill="#fcfcfc" d="
  M 587.64 440.29
  Q 558.34 415.18 524.94 400.96
  Q 504.65 392.32 481.02 388.48
  C 442.75 382.26 402.24 390.49 369.96 412.20
  C 319.12 446.39 295.59 505.29 297.99 565.25
  Q 299.15 594.41 305.01 624.75
  Q 306.70 633.47 310.97 654.00
  Q 311.06 654.44 310.74 654.13
  Q 307.52 650.96 305.30 647.61
  Q 287.93 621.43 280.80 591.15
  Q 270.82 548.77 278.51 507.76
  C 290.43 444.22 330.02 387.73 389.63 360.67
  C 434.54 340.28 486.00 338.95 530.75 360.34
  C 568.94 378.59 597.75 409.91 614.84 448.42
  Q 620.91 462.11 623.54 476.62
  Q 623.89 478.52 622.72 476.98
  C 612.55 463.55 601.09 451.81 587.64 440.29
  Z"
/>
<path fill="#fcfcfc" d="
  M 379.33 667.83
  C 376.32 665.75 373.58 664.24 370.64 661.93
  Q 343.45 640.55 330.61 607.91
  C 312.79 562.60 317.44 513.07 342.40 471.39
  C 364.86 433.86 402.80 409.16 446.08 403.49
  Q 490.68 397.64 532.02 414.85
  Q 534.30 415.80 531.95 415.04
  C 495.00 403.21 451.13 402.94 415.33 419.08
  Q 407.77 422.50 395.23 431.46
  Q 383.16 440.09 371.87 454.89
  C 338.06 499.20 335.39 561.09 352.86 612.67
  Q 362.42 640.91 380.18 666.98
  Q 382.03 669.70 379.33 667.83
  Z"
/>
<path fill="#fcfcfc" d="
  M 507.10 419.82
  C 469.89 440.49 451.15 481.57 461.42 523.13
  C 469.75 556.86 495.75 585.02 526.45 600.84
  Q 574.15 625.42 627.39 617.21
  Q 627.40 617.21 627.41 617.23
  L 627.46 617.49
  Q 627.49 617.67 627.31 617.72
  Q 578.55 629.11 532.64 609.39
  Q 497.78 594.41 475.33 564.56
  Q 465.46 551.45 459.59 534.24
  C 451.51 510.57 453.18 484.21 464.09 461.64
  Q 468.45 452.62 474.80 444.82
  Q 487.82 428.84 507.06 419.74
  A 0.04 0.04 0.0 0 1 507.10 419.82
  Z"
/>
<path fill="#fcfcfc" d="
  M 327.58 699.93
  Q 333.03 700.35 337.17 699.57
  Q 352.40 696.73 361.61 692.62
  C 369.69 689.01 375.49 686.53 382.16 682.98
  Q 397.15 675.00 414.08 666.59
  C 429.91 658.73 446.02 652.26 462.86 648.12
  Q 511.13 636.25 559.35 647.98
  Q 568.78 650.27 587.28 656.64
  Q 598.54 660.52 617.87 668.88
  Q 623.17 671.17 628.69 673.24
  Q 637.86 676.67 639.53 677.35
  Q 658.42 685.03 680.76 687.17
  C 699.68 688.98 719.55 684.85 735.58 674.49
  A 0.02 0.02 0.0 0 1 735.60 674.52
  Q 718.84 690.64 697.18 698.36
  C 679.98 704.50 658.97 704.60 640.99 700.77
  C 630.33 698.50 621.79 696.02 609.58 692.26
  Q 588.10 685.64 566.24 681.13
  Q 515.72 670.71 465.71 679.91
  C 452.50 682.35 436.56 686.45 421.48 691.28
  Q 402.35 697.41 394.63 699.89
  Q 385.23 702.91 368.55 705.07
  Q 353.16 707.06 337.58 703.31
  Q 331.58 701.86 327.51 700.22
  Q 326.60 699.85 327.58 699.93
  Z"
/>
<path fill="#fcfcfc" d="
  M 668.40 728.05
  Q 670.54 727.34 672.24 726.85
  Q 673.08 726.61 672.34 727.07
  Q 652.42 739.32 628.50 740.52
  C 616.80 741.11 606.01 740.24 594.06 738.31
  Q 585.76 736.96 568.17 734.53
  Q 523.45 728.35 480.34 733.87
  Q 462.70 736.12 445.69 739.41
  C 426.46 743.12 407.91 743.87 389.08 738.06
  Q 387.05 737.44 389.17 737.27
  Q 395.88 736.75 402.80 734.50
  Q 414.24 730.77 430.75 724.02
  Q 439.80 720.32 453.34 716.00
  C 485.26 705.82 518.34 703.43 551.66 708.85
  Q 560.56 710.30 578.40 715.19
  Q 589.51 718.23 608.71 724.42
  C 627.65 730.52 649.44 734.36 668.40 728.05
  Z"
/>
</svg>
